<?xml version="1.0" encoding="UTF-8" standalone="no"?>
<svg
   viewBox="0 0 24 24"
   version="1.1"
   id="svg4"
   sodipodi:docname="favorite-active-dark.svg"
   inkscape:version="1.2.2 (b0a8486541, 2022-12-01)"
   xmlns:inkscape="http://www.inkscape.org/namespaces/inkscape"
   xmlns:sodipodi="http://sodipodi.sourceforge.net/DTD/sodipodi-0.dtd"
   xmlns="http://www.w3.org/2000/svg"
   xmlns:svg="http://www.w3.org/2000/svg">
  <defs
     id="defs8" />
  <sodipodi:namedview
     id="namedview6"
     pagecolor="#ffffff"
     bordercolor="#666666"
     borderopacity="1.0"
     inkscape:showpageshadow="2"
     inkscape:pageopacity="0.0"
     inkscape:pagecheckerboard="0"
     inkscape:deskcolor="#d1d1d1"
     showgrid="false"
     inkscape:zoom="4.3236633"
     inkscape:cx="6.9385606"
     inkscape:cy="20.237468"
     inkscape:window-width="1366"
     inkscape:window-height="720"
     inkscape:window-x="0"
     inkscape:window-y="16"
     inkscape:window-maximized="1"
     inkscape:current-layer="svg4" />
  <path
     sodipodi:type="star"
     style="fill:#ffff00;stroke:#ffff00"
     id="path368"
     inkscape:flatsided="false"
     sodipodi:sides="5"
     sodipodi:cx="11.995634"
     sodipodi:cy="12.784275"
     sodipodi:r1="7.1812391"
     sodipodi:r2="3.5906205"
     sodipodi:arg1="-1.5707963"
     sodipodi:arg2="-0.9424778"
     inkscape:rounded="0.02"
     inkscape:randomized="0"
     d="m 11.995634,5.6030359 c 0.09538,0 2.033353,4.2203054 2.110514,4.2763661 0.07716,0.056061 4.689778,0.59504 4.71925,0.685748 0.02947,0.09071 -3.385408,3.23798 -3.414881,3.328688 -0.02947,0.09071 0.883304,4.644121 0.806143,4.700182 -0.07716,0.05606 -4.12565,-2.219124 -4.221026,-2.219124 -0.09538,0 -4.1438655,2.275184 -4.2210265,2.219123 C 7.6974465,18.537959 8.6102239,13.984546 8.580751,13.893838 8.5512782,13.80313 5.136397,10.655858 5.1658699,10.56515 5.1953428,10.474442 9.8079593,9.9354628 9.8851203,9.879402 9.9622813,9.8233413 11.900258,5.6030359 11.995634,5.6030359 Z"
     inkscape:transform-center-y="-0.68523771"
     transform="translate(0.00436586,-0.09917075)" />
  <path
     fill="#ffffff"
     d="M22,9.67A1,1,0,0,0,21.14,9l-5.69-.83L12.9,3a1,1,0,0,0-1.8,0L8.55,8.16,2.86,9a1,1,0,0,0-.81.68,1,1,0,0,0,.25,1l4.13,4-1,5.68A1,1,0,0,0,6.9,21.44L12,18.77l5.1,2.67a.93.93,0,0,0,.46.12,1,1,0,0,0,.59-.19,1,1,0,0,0,.4-1l-1-5.68,4.13-4A1,1,0,0,0,22,9.67Zm-6.15,4a1,1,0,0,0-.29.88l.72,4.2-3.76-2a1.06,1.06,0,0,0-.94,0l-3.76,2,.72-4.2a1,1,0,0,0-.29-.88l-3-3,4.21-.61a1,1,0,0,0,.76-.55L12,5.7l1.88,3.82a1,1,0,0,0,.76.55l4.21.61Z"
     id="path2" />
</svg>
